# xmcd CD database file generated by Grip 2.96
# 
# Track frame offsets:
#       183
#       15628
#       30060
#       48508
#       68188
#       92473
#       109378
#       126893
#       146388
#       173748
#       191268
# 
# Disc length: 2811 seconds
# 
# Revision: 0
# Processed by: cddbd v1.4PL0 Copyright (c) Steve Scherf et al.
# Submitted via: Grip 2.96
# 
DISCID=850af90b
DTITLE=Takáts Tamás Dirty Blues Band - Húzom az igát
DYEAR=1900
DGENRE=
TTITLE0=Ufó
TTITLE1=Sem a testem, sem a lelkem
TTITLE2=Hol a határ
TTITLE3=Úgyis a szeretõd leszek
TTITLE4=Te szeress engem
TTITLE5=Komoly, nagylány
TTITLE6=Vigyél el
TTITLE7=Húzom az igát (Az asszony mindig pénzt akar)
TTITLE8=Senki nem vigyáz rám
TTITLE9=Szégyeld magad, babám
TTITLE10=Hortobágy
EXTD=
EXTT0=
EXTT1=
EXTT2=
EXTT3=
EXTT4=
EXTT5=
EXTT6=
EXTT7=
EXTT8=
EXTT9=
EXTT10=
PLAYORDER=
